<svg xmlns="http://www.w3.org/2000/svg" xmlns:xlink="http://www.w3.org/1999/xlink" xmlns:serif="http://www.serif.com/" viewBox="0 0 32 40" version="1.1" xml:space="preserve" style="" x="0px" y="0px" fill-rule="evenodd" clip-rule="evenodd" stroke-linejoin="round" stroke-miterlimit="2"><path d="M28,22.071l2.698,2.702c0.403,0.404 0.403,1.058 -0,1.462c-0.446,0.447 -1.014,1.016 -1.46,1.462c-0.403,0.404 -1.057,0.404 -1.46,0l-2.697,-2.701l2.919,-2.925Zm-0.99,-0.992l-2.92,2.924l-1.381,-1.384l2.919,-2.925l1.382,1.385Zm-9.491,-12.431c0.205,0.204 0.32,0.482 0.32,0.772c-0,0.29 -0.115,0.568 -0.32,0.773c-0.622,0.624 -1.516,1.519 -2.278,2.282c-0.981,0.983 -1.721,2.182 -2.16,3.503c-0.582,1.747 -1.403,4.215 -1.876,5.637c-0.099,0.296 -0.319,0.536 -0.604,0.658c-0.286,0.123 -0.611,0.116 -0.891,-0.018c-4.836,-2.198 -6.421,-3.771 -8.605,-8.62c-0.133,-0.281 -0.14,-0.606 -0.019,-0.893c0.122,-0.287 0.36,-0.507 0.654,-0.606c1.421,-0.479 3.893,-1.304 5.637,-1.887c1.311,-0.438 2.502,-1.176 3.481,-2.156c0.764,-0.766 1.664,-1.667 2.288,-2.292c0.423,-0.424 1.108,-0.424 1.532,0c0.798,0.8 2.041,2.045 2.841,2.847Zm7.095,10.086l-2.92,2.925l-6.852,-6.921c0.326,-0.54 0.717,-1.041 1.165,-1.49l1.593,-1.595l7.014,7.081Zm-16.011,-10.245l-1.26,-1.262c-0.403,-0.404 -0.403,-1.058 0,-1.462c0.446,-0.447 1.014,-1.016 1.46,-1.462c0.403,-0.404 1.057,-0.404 1.46,-0l1.42,1.423l-1.591,1.594c-0.449,0.45 -0.95,0.842 -1.489,1.169Z"/><text x="0" y="47" fill="#000000" font-size="5px" font-weight="bold" font-family="'Helvetica Neue', Helvetica, Arial-Unicode, Arial, Sans-serif">Created by Hary Murdiono JS</text><text x="0" y="52" fill="#000000" font-size="5px" font-weight="bold" font-family="'Helvetica Neue', Helvetica, Arial-Unicode, Arial, Sans-serif">from the Noun Project</text></svg>