<svg xmlns="http://www.w3.org/2000/svg" version="1.1" viewBox="-5.0 -10.0 110.0 135.0">
 <path d="m35.18 19.395c-5.0859-3.2383-10.652-6.3359-16.652-9.3086 6.2695 0.28906 12.426 1.3633 18.461 3.293 6.1641 1.9727 12.207 4.8359 18.109 8.668l-5.9414 7.5859c-0.011719 0.015626-0.027344 0.03125-0.039062 0.050782-4.125-3.5859-8.7852-7.0117-13.938-10.289zm32.324 12.102-6.0703 7.7539c-0.36328 0.46484-0.87891 0.74219-1.4219 0.83594-0.019531 0.039062-0.03125 0.082031-0.058594 0.11719l-5.6914 7.2695c-0.33203 0.42188-0.70703 0.72266-1.1875 0.94141l-3.8477 1.7734c-0.28906 0.13281-0.50781 0.30859-0.71094 0.56641l-29.703 37.934c-0.625 0.79688-1.5469 1.2227-2.4531 1.2227-0.60547 0-1.207-0.1875-1.707-0.58203l-2.0312-1.5898c-0.61328-0.48047-0.98438-1.1875-1.0508-1.9883-0.0625-0.78516 0.17578-1.5664 0.67578-2.2031l29.863-38.141c0.19922-0.25391 0.3125-0.49609 0.375-0.80469l0.87109-4.2891c0.10156-0.50781 0.30078-0.93359 0.625-1.3438l5.4258-6.9297c-0.011719-0.058593-0.03125-0.11328-0.039062-0.16797-0.070313-0.58984 0.078124-1.2031 0.46875-1.6992l6.0703-7.7539c0.39062-0.49609 0.94922-0.78906 1.5352-0.86328 0.058594-0.007813 0.11719 0 0.17578-0.003907l2.3867-3.0508c1.043-1.332 2.9102-1.6211 4.1602-0.64062l5.9648 4.6719c1.25 0.98047 1.418 2.8594 0.375 4.1914l-2.4414 3.1211c-0.023438 0.03125-0.058594 0.046875-0.089844 0.070312 0.039063 0.55078-0.10938 1.1172-0.47266 1.582zm-8.5312-9.5781c0.054688 0.035156 0.11719 0.066406 0.16797 0.10547l7.9688 6.2383c0.11719 0.089843 0.21875 0.19141 0.3125 0.30078l2.0664-2.6367c0.60156-0.76953 0.53516-1.8359-0.15625-2.375l-5.9648-4.6719c-0.6875-0.53906-1.7422-0.35156-2.3438 0.41797l-2.0508 2.6172zm-16.184 34.055c-0.60547-0.11328-1.2852-0.40625-1.9844-0.87891-0.99219-0.66406-2.0117-1.6953-2.4883-2.7422l-14.27 18.227c0.22266 0.875 1.1445 2.0039 2.3516 2.8164 0.80469 0.53906 1.5703 0.8125 2.1328 0.78906l14.258-18.207zm-14.855 18.969c-0.60547-0.11328-1.2852-0.41016-1.9844-0.87891-0.99219-0.66406-2.0117-1.6953-2.4883-2.7422l-10.195 13.023c-0.29688 0.37891-0.44141 0.83984-0.40234 1.3008 0.035157 0.4375 0.23438 0.82031 0.55859 1.0742l2.0312 1.5898c0.6875 0.53906 1.7422 0.35156 2.3438-0.41797l10.141-12.949zm30.633-35.066c-0.12891-0.066406-0.25-0.14062-0.36719-0.23047l-7.9688-6.2383c-0.054688-0.042969-0.09375-0.09375-0.14453-0.13672l-5.0898 6.5c-0.19922 0.25391-0.3125 0.49609-0.375 0.80469l-0.87109 4.2891c-0.10156 0.50781-0.30078 0.93359-0.625 1.3438l-4.2266 5.3984c0.22266 0.875 1.1445 2.0039 2.3516 2.8164 0.80469 0.53906 1.5703 0.8125 2.1328 0.78906l4.1133-5.25c0.32812-0.42188 0.70703-0.72266 1.1875-0.94141l3.8477-1.7734c0.28906-0.13281 0.50781-0.30859 0.71094-0.56641l5.3242-6.8008zm5.3984-9.6367c-0.054688-0.45703-0.28516-0.89453-0.67578-1.2031l-3.9844-3.1211c-0.39063-0.30469-0.86719-0.42578-1.3242-0.36719-0.45703 0.054687-0.89453 0.28516-1.2031 0.67578l-3.0117 3.8477c-0.019531 0.019532-0.035156 0.039063-0.046875 0.0625-0.28516 0.38281-0.39844 0.84766-0.34375 1.2891 0.054688 0.44531 0.27344 0.87109 0.64453 1.1758 0.019531 0.019532 0.039063 0.035156 0.0625 0.050782l0.11328 0.089843c0.1875 0.14844 0.46094 0.11328 0.60547-0.074219 0.14844-0.1875 0.11328-0.46094-0.074219-0.60547l-0.14453-0.11328c-0.19922-0.15625-0.32031-0.38281-0.34766-0.62109s0.03125-0.48828 0.1875-0.69141l3.0352-3.8789c0.15625-0.19922 0.38281-0.32031 0.62109-0.34766s0.48828 0.03125 0.69141 0.1875l3.9844 3.1211c0.19922 0.15625 0.32031 0.38281 0.34766 0.62109 0.027344 0.23828-0.03125 0.48828-0.1875 0.69141l-3.0352 3.875c-0.15625 0.19922-0.38281 0.32031-0.62109 0.34766-0.23828 0.027344-0.48828-0.03125-0.69141-0.1875l-0.14453-0.11328c-0.1875-0.14844-0.46094-0.11328-0.60547 0.074219-0.14844 0.1875-0.11328 0.46094 0.074219 0.60547l0.11328 0.089844c0.019532 0.019531 0.042969 0.035156 0.0625 0.050781 0.38281 0.28516 0.84766 0.39844 1.2891 0.34375 0.44531-0.054687 0.87109-0.27344 1.1758-0.64453 0.019531-0.019531 0.035156-0.039062 0.050781-0.0625l3.0117-3.8477c0.30469-0.39062 0.42578-0.86719 0.36719-1.3242zm16.848 17.457c-3.3945-5.5117-7.6211-10.688-12.758-15.5l-5.9414 7.5859c-0.011719 0.015625-0.027343 0.03125-0.039062 0.050781 4.4688 3.1445 8.9141 6.8477 13.336 11.062 4.3633 4.1602 8.707 8.8203 13.027 13.93-1.7852-6.0156-4.3047-11.734-7.625-17.129z"/>
<text x="0.0" y="117.5" font-size="5.0" font-weight="bold" font-family="Arbeit Regular, Helvetica, Arial-Unicode, Arial, Sans-serif" fill="#000000">Created by Art Isnakafa</text><text x="0.0" y="122.5" font-size="5.0" font-weight="bold" font-family="Arbeit Regular, Helvetica, Arial-Unicode, Arial, Sans-serif" fill="#000000">from Noun Project</text></svg>